<?xml version="1.0" encoding="utf-8" standalone="no"?>
<!DOCTYPE svg PUBLIC "-//W3C//DTD SVG 1.1//EN"
  "http://www.w3.org/Graphics/SVG/1.1/DTD/svg11.dtd">
<svg xmlns:xlink="http://www.w3.org/1999/xlink" width="460.8pt" height="345.6pt" viewBox="0 0 460.8 345.6" xmlns="http://www.w3.org/2000/svg" version="1.1">
 <metadata>
  <rdf:RDF xmlns:dc="http://purl.org/dc/elements/1.1/" xmlns:cc="http://creativecommons.org/ns#" xmlns:rdf="http://www.w3.org/1999/02/22-rdf-syntax-ns#">
   <cc:Work>
    <dc:type rdf:resource="http://purl.org/dc/dcmitype/StillImage"/>
    <dc:date>2026-04-08T11:24:35.264351</dc:date>
    <dc:format>image/svg+xml</dc:format>
    <dc:creator>
     <cc:Agent>
      <dc:title>Matplotlib v3.10.8, https://matplotlib.org/</dc:title>
     </cc:Agent>
    </dc:creator>
   </cc:Work>
  </rdf:RDF>
 </metadata>
 <defs>
  <style type="text/css">*{stroke-linejoin: round; stroke-linecap: butt}</style>
 </defs>
 <g id="figure_1">
  <g id="patch_1">
   <path d="M 0 345.6 
L 460.8 345.6 
L 460.8 0 
L 0 0 
z
" style="fill: #ffffff"/>
  </g>
  <g id="axes_1">
   <g id="patch_2">
    <path d="M 60.812054 294.568 
L 450 294.568 
L 450 10.8 
L 60.812054 10.8 
z
" style="fill: #ffffff"/>
   </g>
   <g id="PathCollection_1">
    <defs>
     <path id="mf2b422878d" d="M 0 3 
C 0.795609 3 1.55874 2.683901 2.12132 2.12132 
C 2.683901 1.55874 3 0.795609 3 0 
C 3 -0.795609 2.683901 -1.55874 2.12132 -2.12132 
C 1.55874 -2.683901 0.795609 -3 0 -3 
C -0.795609 -3 -1.55874 -2.683901 -2.12132 -2.12132 
C -2.683901 -1.55874 -3 -0.795609 -3 0 
C -3 0.795609 -2.683901 1.55874 -2.12132 2.12132 
C -1.55874 2.683901 -0.795609 3 0 3 
z
" style="stroke: #1f77b4"/>
    </defs>
    <g clip-path="url(#pe4ed5e55d1)">
     <use xlink:href="#mf2b422878d" x="80.173486" y="276.840556" style="fill: #1f77b4; stroke: #1f77b4"/>
     <use xlink:href="#mf2b422878d" x="98.178719" y="268.438963" style="fill: #1f77b4; stroke: #1f77b4"/>
     <use xlink:href="#mf2b422878d" x="114.534055" y="265.207582" style="fill: #1f77b4; stroke: #1f77b4"/>
     <use xlink:href="#mf2b422878d" x="132.535406" y="257.452265" style="fill: #1f77b4; stroke: #1f77b4"/>
     <use xlink:href="#mf2b422878d" x="150.532874" y="252.282054" style="fill: #1f77b4; stroke: #1f77b4"/>
     <use xlink:href="#mf2b422878d" x="167.443352" y="243.880462" style="fill: #1f77b4; stroke: #1f77b4"/>
     <use xlink:href="#mf2b422878d" x="185.988199" y="239.356527" style="fill: #1f77b4; stroke: #1f77b4"/>
     <use xlink:href="#mf2b422878d" x="203.457699" y="227.723553" style="fill: #1f77b4; stroke: #1f77b4"/>
     <use xlink:href="#mf2b422878d" x="221.987018" y="218.029408" style="fill: #1f77b4; stroke: #1f77b4"/>
     <use xlink:href="#mf2b422878d" x="238.893614" y="207.688986" style="fill: #1f77b4; stroke: #1f77b4"/>
     <use xlink:href="#mf2b422878d" x="255.256713" y="196.702288" style="fill: #1f77b4; stroke: #1f77b4"/>
     <use xlink:href="#mf2b422878d" x="274.892433" y="188.946971" style="fill: #1f77b4; stroke: #1f77b4"/>
     <use xlink:href="#mf2b422878d" x="291.255533" y="177.313997" style="fill: #1f77b4; stroke: #1f77b4"/>
     <use xlink:href="#mf2b422878d" x="307.618633" y="165.681023" style="fill: #1f77b4; stroke: #1f77b4"/>
     <use xlink:href="#mf2b422878d" x="326.710857" y="156.633154" style="fill: #1f77b4; stroke: #1f77b4"/>
     <use xlink:href="#mf2b422878d" x="343.617452" y="144.353903" style="fill: #1f77b4; stroke: #1f77b4"/>
     <use xlink:href="#mf2b422878d" x="361.634331" y="137.891139" style="fill: #1f77b4; stroke: #1f77b4"/>
     <use xlink:href="#mf2b422878d" x="379.616272" y="129.489547" style="fill: #1f77b4; stroke: #1f77b4"/>
     <use xlink:href="#mf2b422878d" x="396.52675" y="124.319336" style="fill: #1f77b4; stroke: #1f77b4"/>
     <use xlink:href="#mf2b422878d" x="413.996251" y="114.62519" style="fill: #1f77b4; stroke: #1f77b4"/>
     <use xlink:href="#mf2b422878d" x="431.434696" y="102.34594" style="fill: #1f77b4; stroke: #1f77b4"/>
    </g>
   </g>
   <g id="PathCollection_2">
    <defs>
     <path id="C0_0_ac89e07c5a" d="M 0 3 
C 0.795609 3 1.55874 2.683901 2.12132 2.12132 
C 2.683901 1.55874 3 0.795609 3 -0 
C 3 -0.795609 2.683901 -1.55874 2.12132 -2.12132 
C 1.55874 -2.683901 0.795609 -3 0 -3 
C -0.795609 -3 -1.55874 -2.683901 -2.12132 -2.12132 
C -2.683901 -1.55874 -3 -0.795609 -3 0 
C -3 0.795609 -2.683901 1.55874 -2.12132 2.12132 
C -1.55874 2.683901 -0.795609 3 0 3 
z
"/>
    </defs>
    <g clip-path="url(#pe4ed5e55d1)">
     <use xlink:href="#C0_0_ac89e07c5a" x="80.173486" y="187.008142" style="fill: none; stroke: #1f77b4"/>
    </g>
    <g clip-path="url(#pe4ed5e55d1)">
     <use xlink:href="#C0_0_ac89e07c5a" x="98.178719" y="181.191655" style="fill: none; stroke: #1f77b4"/>
    </g>
    <g clip-path="url(#pe4ed5e55d1)">
     <use xlink:href="#C0_0_ac89e07c5a" x="114.534055" y="175.375168" style="fill: none; stroke: #1f77b4"/>
    </g>
    <g clip-path="url(#pe4ed5e55d1)">
     <use xlink:href="#C0_0_ac89e07c5a" x="132.535406" y="169.558681" style="fill: none; stroke: #1f77b4"/>
    </g>
    <g clip-path="url(#pe4ed5e55d1)">
     <use xlink:href="#C0_0_ac89e07c5a" x="150.532874" y="162.449641" style="fill: none; stroke: #1f77b4"/>
    </g>
    <g clip-path="url(#pe4ed5e55d1)">
     <use xlink:href="#C0_0_ac89e07c5a" x="167.443352" y="156.633154" style="fill: none; stroke: #1f77b4"/>
    </g>
    <g clip-path="url(#pe4ed5e55d1)">
     <use xlink:href="#C0_0_ac89e07c5a" x="185.988199" y="152.109219" style="fill: none; stroke: #1f77b4"/>
    </g>
    <g clip-path="url(#pe4ed5e55d1)">
     <use xlink:href="#C0_0_ac89e07c5a" x="203.457699" y="144.353903" style="fill: none; stroke: #1f77b4"/>
    </g>
    <g clip-path="url(#pe4ed5e55d1)">
     <use xlink:href="#C0_0_ac89e07c5a" x="221.987018" y="140.476245" style="fill: none; stroke: #1f77b4"/>
    </g>
    <g clip-path="url(#pe4ed5e55d1)">
     <use xlink:href="#C0_0_ac89e07c5a" x="238.893614" y="133.367205" style="fill: none; stroke: #1f77b4"/>
    </g>
    <g clip-path="url(#pe4ed5e55d1)">
     <use xlink:href="#C0_0_ac89e07c5a" x="255.256713" y="128.84327" style="fill: none; stroke: #1f77b4"/>
    </g>
    <g clip-path="url(#pe4ed5e55d1)">
     <use xlink:href="#C0_0_ac89e07c5a" x="274.892433" y="124.319336" style="fill: none; stroke: #1f77b4"/>
    </g>
    <g clip-path="url(#pe4ed5e55d1)">
     <use xlink:href="#C0_0_ac89e07c5a" x="291.255533" y="117.856572" style="fill: none; stroke: #1f77b4"/>
    </g>
    <g clip-path="url(#pe4ed5e55d1)">
     <use xlink:href="#C0_0_ac89e07c5a" x="307.618633" y="113.332638" style="fill: none; stroke: #1f77b4"/>
    </g>
    <g clip-path="url(#pe4ed5e55d1)">
     <use xlink:href="#C0_0_ac89e07c5a" x="326.710857" y="108.162427" style="fill: none; stroke: #1f77b4"/>
    </g>
    <g clip-path="url(#pe4ed5e55d1)">
     <use xlink:href="#C0_0_ac89e07c5a" x="343.617452" y="102.34594" style="fill: none; stroke: #1f77b4"/>
    </g>
    <g clip-path="url(#pe4ed5e55d1)">
     <use xlink:href="#C0_0_ac89e07c5a" x="361.634331" y="97.822005" style="fill: none; stroke: #1f77b4"/>
    </g>
    <g clip-path="url(#pe4ed5e55d1)">
     <use xlink:href="#C0_0_ac89e07c5a" x="379.616272" y="92.651794" style="fill: none; stroke: #1f77b4"/>
    </g>
    <g clip-path="url(#pe4ed5e55d1)">
     <use xlink:href="#C0_0_ac89e07c5a" x="396.52675" y="89.420412" style="fill: none; stroke: #1f77b4"/>
    </g>
    <g clip-path="url(#pe4ed5e55d1)">
     <use xlink:href="#C0_0_ac89e07c5a" x="413.996251" y="83.603925" style="fill: none; stroke: #1f77b4"/>
    </g>
    <g clip-path="url(#pe4ed5e55d1)">
     <use xlink:href="#C0_0_ac89e07c5a" x="431.434696" y="80.372543" style="fill: none; stroke: #1f77b4"/>
    </g>
   </g>
   <g id="PathCollection_3">
    <defs>
     <path id="m78dee634a0" d="M 0 3 
C 0.795609 3 1.55874 2.683901 2.12132 2.12132 
C 2.683901 1.55874 3 0.795609 3 0 
C 3 -0.795609 2.683901 -1.55874 2.12132 -2.12132 
C 1.55874 -2.683901 0.795609 -3 0 -3 
C -0.795609 -3 -1.55874 -2.683901 -2.12132 -2.12132 
C -2.683901 -1.55874 -3 -0.795609 -3 0 
C -3 0.795609 -2.683901 1.55874 -2.12132 2.12132 
C -1.55874 2.683901 -0.795609 3 0 3 
z
" style="stroke: #ff7f0e"/>
    </defs>
    <g clip-path="url(#pe4ed5e55d1)">
     <use xlink:href="#m78dee634a0" x="78.502415" y="185.069313" style="fill: #ff7f0e; stroke: #ff7f0e"/>
     <use xlink:href="#m78dee634a0" x="98.421355" y="176.667721" style="fill: #ff7f0e; stroke: #ff7f0e"/>
     <use xlink:href="#m78dee634a0" x="113.94988" y="169.558681" style="fill: #ff7f0e; stroke: #ff7f0e"/>
     <use xlink:href="#m78dee634a0" x="131.515773" y="160.510812" style="fill: #ff7f0e; stroke: #ff7f0e"/>
     <use xlink:href="#m78dee634a0" x="150.484911" y="152.755495" style="fill: #ff7f0e; stroke: #ff7f0e"/>
     <use xlink:href="#m78dee634a0" x="167.420791" y="145.646456" style="fill: #ff7f0e; stroke: #ff7f0e"/>
     <use xlink:href="#m78dee634a0" x="185.93227" y="137.244863" style="fill: #ff7f0e; stroke: #ff7f0e"/>
     <use xlink:href="#m78dee634a0" x="203.726016" y="130.135823" style="fill: #ff7f0e; stroke: #ff7f0e"/>
     <use xlink:href="#m78dee634a0" x="222.152674" y="124.319336" style="fill: #ff7f0e; stroke: #ff7f0e"/>
     <use xlink:href="#m78dee634a0" x="239.134155" y="116.602916" style="fill: #ff7f0e; stroke: #ff7f0e"/>
     <use xlink:href="#m78dee634a0" x="255.231462" y="110.618875" style="fill: #ff7f0e; stroke: #ff7f0e"/>
     <use xlink:href="#m78dee634a0" x="274.486531" y="103.88683" style="fill: #ff7f0e; stroke: #ff7f0e"/>
     <use xlink:href="#m78dee634a0" x="291.21513" y="99.024797" style="fill: #ff7f0e; stroke: #ff7f0e"/>
     <use xlink:href="#m78dee634a0" x="308.260026" y="93.040757" style="fill: #ff7f0e; stroke: #ff7f0e"/>
     <use xlink:href="#m78dee634a0" x="327.198799" y="88.552727" style="fill: #ff7f0e; stroke: #ff7f0e"/>
     <use xlink:href="#m78dee634a0" x="343.928698" y="83.316691" style="fill: #ff7f0e; stroke: #ff7f0e"/>
     <use xlink:href="#m78dee634a0" x="363.182467" y="78.828661" style="fill: #ff7f0e; stroke: #ff7f0e"/>
     <use xlink:href="#m78dee634a0" x="379.596071" y="73.218623" style="fill: #ff7f0e; stroke: #ff7f0e"/>
     <use xlink:href="#m78dee634a0" x="396.32597" y="69.478598" style="fill: #ff7f0e; stroke: #ff7f0e"/>
     <use xlink:href="#m78dee634a0" x="414.951047" y="65.36457" style="fill: #ff7f0e; stroke: #ff7f0e"/>
     <use xlink:href="#m78dee634a0" x="432.309639" y="60.128535" style="fill: #ff7f0e; stroke: #ff7f0e"/>
    </g>
   </g>
   <g id="PathCollection_4">
    <defs>
     <path id="C1_0_643f73a8fe" d="M 0 3 
C 0.795609 3 1.55874 2.683901 2.12132 2.12132 
C 2.683901 1.55874 3 0.795609 3 -0 
C 3 -0.795609 2.683901 -1.55874 2.12132 -2.12132 
C 1.55874 -2.683901 0.795609 -3 0 -3 
C -0.795609 -3 -1.55874 -2.683901 -2.12132 -2.12132 
C -2.683901 -1.55874 -3 -0.795609 -3 0 
C -3 0.795609 -2.683901 1.55874 -2.12132 2.12132 
C -1.55874 2.683901 -0.795609 3 0 3 
z
"/>
    </defs>
    <g clip-path="url(#pe4ed5e55d1)">
     <use xlink:href="#C1_0_643f73a8fe" x="78.502415" y="137.173054" style="fill: none; stroke: #ff7f0e"/>
    </g>
    <g clip-path="url(#pe4ed5e55d1)">
     <use xlink:href="#C1_0_643f73a8fe" x="98.421355" y="132.685024" style="fill: none; stroke: #ff7f0e"/>
    </g>
    <g clip-path="url(#pe4ed5e55d1)">
     <use xlink:href="#C1_0_643f73a8fe" x="113.94988" y="127.074986" style="fill: none; stroke: #ff7f0e"/>
    </g>
    <g clip-path="url(#pe4ed5e55d1)">
     <use xlink:href="#C1_0_643f73a8fe" x="131.515773" y="122.586956" style="fill: none; stroke: #ff7f0e"/>
    </g>
    <g clip-path="url(#pe4ed5e55d1)">
     <use xlink:href="#C1_0_643f73a8fe" x="150.484911" y="116.228913" style="fill: none; stroke: #ff7f0e"/>
    </g>
    <g clip-path="url(#pe4ed5e55d1)">
     <use xlink:href="#C1_0_643f73a8fe" x="167.420791" y="112.488888" style="fill: none; stroke: #ff7f0e"/>
    </g>
    <g clip-path="url(#pe4ed5e55d1)">
     <use xlink:href="#C1_0_643f73a8fe" x="185.93227" y="107.252853" style="fill: none; stroke: #ff7f0e"/>
    </g>
    <g clip-path="url(#pe4ed5e55d1)">
     <use xlink:href="#C1_0_643f73a8fe" x="203.726016" y="102.016817" style="fill: none; stroke: #ff7f0e"/>
    </g>
    <g clip-path="url(#pe4ed5e55d1)">
     <use xlink:href="#C1_0_643f73a8fe" x="222.152674" y="97.90279" style="fill: none; stroke: #ff7f0e"/>
    </g>
    <g clip-path="url(#pe4ed5e55d1)">
     <use xlink:href="#C1_0_643f73a8fe" x="239.134155" y="93.788762" style="fill: none; stroke: #ff7f0e"/>
    </g>
    <g clip-path="url(#pe4ed5e55d1)">
     <use xlink:href="#C1_0_643f73a8fe" x="255.231462" y="89.674734" style="fill: none; stroke: #ff7f0e"/>
    </g>
    <g clip-path="url(#pe4ed5e55d1)">
     <use xlink:href="#C1_0_643f73a8fe" x="274.486531" y="86.308711" style="fill: none; stroke: #ff7f0e"/>
    </g>
    <g clip-path="url(#pe4ed5e55d1)">
     <use xlink:href="#C1_0_643f73a8fe" x="291.21513" y="82.194684" style="fill: none; stroke: #ff7f0e"/>
    </g>
    <g clip-path="url(#pe4ed5e55d1)">
     <use xlink:href="#C1_0_643f73a8fe" x="308.260026" y="78.454659" style="fill: none; stroke: #ff7f0e"/>
    </g>
    <g clip-path="url(#pe4ed5e55d1)">
     <use xlink:href="#C1_0_643f73a8fe" x="327.198799" y="74.714633" style="fill: none; stroke: #ff7f0e"/>
    </g>
    <g clip-path="url(#pe4ed5e55d1)">
     <use xlink:href="#C1_0_643f73a8fe" x="343.928698" y="72.096616" style="fill: none; stroke: #ff7f0e"/>
    </g>
    <g clip-path="url(#pe4ed5e55d1)">
     <use xlink:href="#C1_0_643f73a8fe" x="363.182467" y="69.852601" style="fill: none; stroke: #ff7f0e"/>
    </g>
    <g clip-path="url(#pe4ed5e55d1)">
     <use xlink:href="#C1_0_643f73a8fe" x="379.596071" y="66.86058" style="fill: none; stroke: #ff7f0e"/>
    </g>
    <g clip-path="url(#pe4ed5e55d1)">
     <use xlink:href="#C1_0_643f73a8fe" x="396.32597" y="64.990568" style="fill: none; stroke: #ff7f0e"/>
    </g>
    <g clip-path="url(#pe4ed5e55d1)">
     <use xlink:href="#C1_0_643f73a8fe" x="414.951047" y="62.37255" style="fill: none; stroke: #ff7f0e"/>
    </g>
    <g clip-path="url(#pe4ed5e55d1)">
     <use xlink:href="#C1_0_643f73a8fe" x="432.309639" y="59.754532" style="fill: none; stroke: #ff7f0e"/>
    </g>
   </g>
   <g id="PathCollection_5">
    <defs>
     <path id="m4a2782f739" d="M 0 3 
C 0.795609 3 1.55874 2.683901 2.12132 2.12132 
C 2.683901 1.55874 3 0.795609 3 0 
C 3 -0.795609 2.683901 -1.55874 2.12132 -2.12132 
C 1.55874 -2.683901 0.795609 -3 0 -3 
C -0.795609 -3 -1.55874 -2.683901 -2.12132 -2.12132 
C -2.683901 -1.55874 -3 -0.795609 -3 0 
C -3 0.795609 -2.683901 1.55874 -2.12132 2.12132 
C -1.55874 2.683901 -0.795609 3 0 3 
z
" style="stroke: #2ca02c"/>
    </defs>
    <g clip-path="url(#pe4ed5e55d1)">
     <use xlink:href="#m4a2782f739" x="79.103474" y="103.512827" style="fill: #2ca02c; stroke: #2ca02c"/>
     <use xlink:href="#m4a2782f739" x="97.410954" y="96.780782" style="fill: #2ca02c; stroke: #2ca02c"/>
     <use xlink:href="#m4a2782f739" x="115.718435" y="91.170744" style="fill: #2ca02c; stroke: #2ca02c"/>
     <use xlink:href="#m4a2782f739" x="132.461335" y="85.186704" style="fill: #2ca02c; stroke: #2ca02c"/>
     <use xlink:href="#m4a2782f739" x="150.121922" y="79.202664" style="fill: #2ca02c; stroke: #2ca02c"/>
     <use xlink:href="#m4a2782f739" x="167.79811" y="73.218623" style="fill: #2ca02c; stroke: #2ca02c"/>
     <use xlink:href="#m4a2782f739" x="186.105591" y="68.730593" style="fill: #2ca02c; stroke: #2ca02c"/>
     <use xlink:href="#m4a2782f739" x="202.83419" y="64.990568" style="fill: #2ca02c; stroke: #2ca02c"/>
     <use xlink:href="#m4a2782f739" x="221.772963" y="59.38053" style="fill: #2ca02c; stroke: #2ca02c"/>
     <use xlink:href="#m4a2782f739" x="239.449151" y="56.762512" style="fill: #2ca02c; stroke: #2ca02c"/>
     <use xlink:href="#m4a2782f739" x="255.241863" y="51.526477" style="fill: #2ca02c; stroke: #2ca02c"/>
     <use xlink:href="#m4a2782f739" x="274.170235" y="48.534457" style="fill: #2ca02c; stroke: #2ca02c"/>
     <use xlink:href="#m4a2782f739" x="291.21513" y="44.420429" style="fill: #2ca02c; stroke: #2ca02c"/>
     <use xlink:href="#m4a2782f739" x="307.94503" y="42.176414" style="fill: #2ca02c; stroke: #2ca02c"/>
     <use xlink:href="#m4a2782f739" x="326.883803" y="39.558396" style="fill: #2ca02c; stroke: #2ca02c"/>
     <use xlink:href="#m4a2782f739" x="343.615002" y="36.566376" style="fill: #2ca02c; stroke: #2ca02c"/>
     <use xlink:href="#m4a2782f739" x="361.604886" y="33.948358" style="fill: #2ca02c; stroke: #2ca02c"/>
     <use xlink:href="#m4a2782f739" x="378.967379" y="31.330341" style="fill: #2ca02c; stroke: #2ca02c"/>
     <use xlink:href="#m4a2782f739" x="396.32597" y="28.712323" style="fill: #2ca02c; stroke: #2ca02c"/>
     <use xlink:href="#m4a2782f739" x="414.633451" y="26.468308" style="fill: #2ca02c; stroke: #2ca02c"/>
     <use xlink:href="#m4a2782f739" x="431.995943" y="25.3463" style="fill: #2ca02c; stroke: #2ca02c"/>
    </g>
   </g>
   <g id="PathCollection_6">
    <defs>
     <path id="C2_0_d54270ba4c" d="M 0 3 
C 0.795609 3 1.55874 2.683901 2.12132 2.12132 
C 2.683901 1.55874 3 0.795609 3 -0 
C 3 -0.795609 2.683901 -1.55874 2.12132 -2.12132 
C 1.55874 -2.683901 0.795609 -3 0 -3 
C -0.795609 -3 -1.55874 -2.683901 -2.12132 -2.12132 
C -2.683901 -1.55874 -3 -0.795609 -3 0 
C -3 0.795609 -2.683901 1.55874 -2.12132 2.12132 
C -1.55874 2.683901 -0.795609 3 0 3 
z
"/>
    </defs>
    <g clip-path="url(#pe4ed5e55d1)">
     <use xlink:href="#C2_0_d54270ba4c" x="79.103474" y="83.690694" style="fill: none; stroke: #2ca02c"/>
    </g>
    <g clip-path="url(#pe4ed5e55d1)">
     <use xlink:href="#C2_0_d54270ba4c" x="97.410954" y="79.576666" style="fill: none; stroke: #2ca02c"/>
    </g>
    <g clip-path="url(#pe4ed5e55d1)">
     <use xlink:href="#C2_0_d54270ba4c" x="115.718435" y="76.210643" style="fill: none; stroke: #2ca02c"/>
    </g>
    <g clip-path="url(#pe4ed5e55d1)">
     <use xlink:href="#C2_0_d54270ba4c" x="132.461335" y="72.470618" style="fill: none; stroke: #2ca02c"/>
    </g>
    <g clip-path="url(#pe4ed5e55d1)">
     <use xlink:href="#C2_0_d54270ba4c" x="150.121922" y="68.730593" style="fill: none; stroke: #2ca02c"/>
    </g>
    <g clip-path="url(#pe4ed5e55d1)">
     <use xlink:href="#C2_0_d54270ba4c" x="167.79811" y="66.86058" style="fill: none; stroke: #2ca02c"/>
    </g>
    <g clip-path="url(#pe4ed5e55d1)">
     <use xlink:href="#C2_0_d54270ba4c" x="186.105591" y="63.494558" style="fill: none; stroke: #2ca02c"/>
    </g>
    <g clip-path="url(#pe4ed5e55d1)">
     <use xlink:href="#C2_0_d54270ba4c" x="202.83419" y="61.250543" style="fill: none; stroke: #2ca02c"/>
    </g>
    <g clip-path="url(#pe4ed5e55d1)">
     <use xlink:href="#C2_0_d54270ba4c" x="221.772963" y="57.510517" style="fill: none; stroke: #2ca02c"/>
    </g>
    <g clip-path="url(#pe4ed5e55d1)">
     <use xlink:href="#C2_0_d54270ba4c" x="239.449151" y="56.762512" style="fill: none; stroke: #2ca02c"/>
    </g>
    <g clip-path="url(#pe4ed5e55d1)">
     <use xlink:href="#C2_0_d54270ba4c" x="255.241863" y="54.8925" style="fill: none; stroke: #2ca02c"/>
    </g>
    <g clip-path="url(#pe4ed5e55d1)">
     <use xlink:href="#C2_0_d54270ba4c" x="274.170235" y="53.770492" style="fill: none; stroke: #2ca02c"/>
    </g>
    <g clip-path="url(#pe4ed5e55d1)">
     <use xlink:href="#C2_0_d54270ba4c" x="291.21513" y="52.274482" style="fill: none; stroke: #2ca02c"/>
    </g>
    <g clip-path="url(#pe4ed5e55d1)">
     <use xlink:href="#C2_0_d54270ba4c" x="307.94503" y="51.152474" style="fill: none; stroke: #2ca02c"/>
    </g>
    <g clip-path="url(#pe4ed5e55d1)">
     <use xlink:href="#C2_0_d54270ba4c" x="326.883803" y="49.282462" style="fill: none; stroke: #2ca02c"/>
    </g>
    <g clip-path="url(#pe4ed5e55d1)">
     <use xlink:href="#C2_0_d54270ba4c" x="343.615002" y="48.160454" style="fill: none; stroke: #2ca02c"/>
    </g>
    <g clip-path="url(#pe4ed5e55d1)">
     <use xlink:href="#C2_0_d54270ba4c" x="361.604886" y="47.786452" style="fill: none; stroke: #2ca02c"/>
    </g>
    <g clip-path="url(#pe4ed5e55d1)">
     <use xlink:href="#C2_0_d54270ba4c" x="378.967379" y="47.038447" style="fill: none; stroke: #2ca02c"/>
    </g>
    <g clip-path="url(#pe4ed5e55d1)">
     <use xlink:href="#C2_0_d54270ba4c" x="396.32597" y="45.916439" style="fill: none; stroke: #2ca02c"/>
    </g>
    <g clip-path="url(#pe4ed5e55d1)">
     <use xlink:href="#C2_0_d54270ba4c" x="414.633451" y="44.420429" style="fill: none; stroke: #2ca02c"/>
    </g>
    <g clip-path="url(#pe4ed5e55d1)">
     <use xlink:href="#C2_0_d54270ba4c" x="431.995943" y="44.794432" style="fill: none; stroke: #2ca02c"/>
    </g>
   </g>
   <g id="matplotlib.axis_1">
    <g id="xtick_1">
     <g id="line2d_1">
      <defs>
       <path id="m39c685a1d1" d="M 0 0 
L 0 3.5 
" style="stroke: #000000; stroke-width: 0.8"/>
      </defs>
      <g>
       <use xlink:href="#m39c685a1d1" x="168.417095" y="294.568" style="stroke: #000000; stroke-width: 0.8"/>
      </g>
     </g>
     <g id="text_1">
      <!-- $\mathdefault{10^{0}}$ -->
      <g transform="translate(159.617095 309.166437) scale(0.1 -0.1)">
       <defs>
        <path id="DejaVuSans-31" d="M 794 531 
L 1825 531 
L 1825 4091 
L 703 3866 
L 703 4441 
L 1819 4666 
L 2450 4666 
L 2450 531 
L 3481 531 
L 3481 0 
L 794 0 
L 794 531 
z
" transform="scale(0.015625)"/>
        <path id="DejaVuSans-30" d="M 2034 4250 
Q 1547 4250 1301 3770 
Q 1056 3291 1056 2328 
Q 1056 1369 1301 889 
Q 1547 409 2034 409 
Q 2525 409 2770 889 
Q 3016 1369 3016 2328 
Q 3016 3291 2770 3770 
Q 2525 4250 2034 4250 
z
M 2034 4750 
Q 2819 4750 3233 4129 
Q 3647 3509 3647 2328 
Q 3647 1150 3233 529 
Q 2819 -91 2034 -91 
Q 1250 -91 836 529 
Q 422 1150 422 2328 
Q 422 3509 836 4129 
Q 1250 4750 2034 4750 
z
" transform="scale(0.015625)"/>
       </defs>
       <use xlink:href="#DejaVuSans-31" transform="translate(0 0.765625)"/>
       <use xlink:href="#DejaVuSans-30" transform="translate(63.623047 0.765625)"/>
       <use xlink:href="#DejaVuSans-30" transform="translate(128.203125 39.046875) scale(0.7)"/>
      </g>
     </g>
    </g>
    <g id="xtick_2">
     <g id="line2d_2">
      <g>
       <use xlink:href="#m39c685a1d1" x="344.865855" y="294.568" style="stroke: #000000; stroke-width: 0.8"/>
      </g>
     </g>
     <g id="text_2">
      <!-- $\mathdefault{10^{1}}$ -->
      <g transform="translate(336.065855 309.166437) scale(0.1 -0.1)">
       <use xlink:href="#DejaVuSans-31" transform="translate(0 0.684375)"/>
       <use xlink:href="#DejaVuSans-30" transform="translate(63.623047 0.684375)"/>
       <use xlink:href="#DejaVuSans-31" transform="translate(128.203125 38.965625) scale(0.7)"/>
      </g>
     </g>
    </g>
    <g id="xtick_3">
     <g id="line2d_3">
      <defs>
       <path id="md290aba3ac" d="M 0 0 
L 0 2 
" style="stroke: #000000; stroke-width: 0.6"/>
      </defs>
      <g>
       <use xlink:href="#md290aba3ac" x="76.155789" y="294.568" style="stroke: #000000; stroke-width: 0.6"/>
      </g>
     </g>
    </g>
    <g id="xtick_4">
     <g id="line2d_4">
      <g>
       <use xlink:href="#md290aba3ac" x="98.201074" y="294.568" style="stroke: #000000; stroke-width: 0.6"/>
      </g>
     </g>
    </g>
    <g id="xtick_5">
     <g id="line2d_5">
      <g>
       <use xlink:href="#md290aba3ac" x="115.300726" y="294.568" style="stroke: #000000; stroke-width: 0.6"/>
      </g>
     </g>
    </g>
    <g id="xtick_6">
     <g id="line2d_6">
      <g>
       <use xlink:href="#md290aba3ac" x="129.272158" y="294.568" style="stroke: #000000; stroke-width: 0.6"/>
      </g>
     </g>
    </g>
    <g id="xtick_7">
     <g id="line2d_7">
      <g>
       <use xlink:href="#md290aba3ac" x="141.084836" y="294.568" style="stroke: #000000; stroke-width: 0.6"/>
      </g>
     </g>
    </g>
    <g id="xtick_8">
     <g id="line2d_8">
      <g>
       <use xlink:href="#md290aba3ac" x="151.317443" y="294.568" style="stroke: #000000; stroke-width: 0.6"/>
      </g>
     </g>
    </g>
    <g id="xtick_9">
     <g id="line2d_9">
      <g>
       <use xlink:href="#md290aba3ac" x="160.343242" y="294.568" style="stroke: #000000; stroke-width: 0.6"/>
      </g>
     </g>
    </g>
    <g id="xtick_10">
     <g id="line2d_10">
      <g>
       <use xlink:href="#md290aba3ac" x="221.533464" y="294.568" style="stroke: #000000; stroke-width: 0.6"/>
      </g>
     </g>
    </g>
    <g id="xtick_11">
     <g id="line2d_11">
      <g>
       <use xlink:href="#md290aba3ac" x="252.604549" y="294.568" style="stroke: #000000; stroke-width: 0.6"/>
      </g>
     </g>
    </g>
    <g id="xtick_12">
     <g id="line2d_12">
      <g>
       <use xlink:href="#md290aba3ac" x="274.649834" y="294.568" style="stroke: #000000; stroke-width: 0.6"/>
      </g>
     </g>
    </g>
    <g id="xtick_13">
     <g id="line2d_13">
      <g>
       <use xlink:href="#md290aba3ac" x="291.749485" y="294.568" style="stroke: #000000; stroke-width: 0.6"/>
      </g>
     </g>
    </g>
    <g id="xtick_14">
     <g id="line2d_14">
      <g>
       <use xlink:href="#md290aba3ac" x="305.720918" y="294.568" style="stroke: #000000; stroke-width: 0.6"/>
      </g>
     </g>
    </g>
    <g id="xtick_15">
     <g id="line2d_15">
      <g>
       <use xlink:href="#md290aba3ac" x="317.533596" y="294.568" style="stroke: #000000; stroke-width: 0.6"/>
      </g>
     </g>
    </g>
    <g id="xtick_16">
     <g id="line2d_16">
      <g>
       <use xlink:href="#md290aba3ac" x="327.766203" y="294.568" style="stroke: #000000; stroke-width: 0.6"/>
      </g>
     </g>
    </g>
    <g id="xtick_17">
     <g id="line2d_17">
      <g>
       <use xlink:href="#md290aba3ac" x="336.792002" y="294.568" style="stroke: #000000; stroke-width: 0.6"/>
      </g>
     </g>
    </g>
    <g id="xtick_18">
     <g id="line2d_18">
      <g>
       <use xlink:href="#md290aba3ac" x="397.982224" y="294.568" style="stroke: #000000; stroke-width: 0.6"/>
      </g>
     </g>
    </g>
    <g id="xtick_19">
     <g id="line2d_19">
      <g>
       <use xlink:href="#md290aba3ac" x="429.053308" y="294.568" style="stroke: #000000; stroke-width: 0.6"/>
      </g>
     </g>
    </g>
    <g id="text_3">
     <!-- Oscillation Frequency, $\omega$ (rad/s) -->
     <g transform="translate(160.066027 324.366125) scale(0.12 -0.12)">
      <defs>
       <path id="DejaVuSans-4f" d="M 2522 4238 
Q 1834 4238 1429 3725 
Q 1025 3213 1025 2328 
Q 1025 1447 1429 934 
Q 1834 422 2522 422 
Q 3209 422 3611 934 
Q 4013 1447 4013 2328 
Q 4013 3213 3611 3725 
Q 3209 4238 2522 4238 
z
M 2522 4750 
Q 3503 4750 4090 4092 
Q 4678 3434 4678 2328 
Q 4678 1225 4090 567 
Q 3503 -91 2522 -91 
Q 1538 -91 948 565 
Q 359 1222 359 2328 
Q 359 3434 948 4092 
Q 1538 4750 2522 4750 
z
" transform="scale(0.015625)"/>
       <path id="DejaVuSans-73" d="M 2834 3397 
L 2834 2853 
Q 2591 2978 2328 3040 
Q 2066 3103 1784 3103 
Q 1356 3103 1142 2972 
Q 928 2841 928 2578 
Q 928 2378 1081 2264 
Q 1234 2150 1697 2047 
L 1894 2003 
Q 2506 1872 2764 1633 
Q 3022 1394 3022 966 
Q 3022 478 2636 193 
Q 2250 -91 1575 -91 
Q 1294 -91 989 -36 
Q 684 19 347 128 
L 347 722 
Q 666 556 975 473 
Q 1284 391 1588 391 
Q 1994 391 2212 530 
Q 2431 669 2431 922 
Q 2431 1156 2273 1281 
Q 2116 1406 1581 1522 
L 1381 1569 
Q 847 1681 609 1914 
Q 372 2147 372 2553 
Q 372 3047 722 3315 
Q 1072 3584 1716 3584 
Q 2034 3584 2315 3537 
Q 2597 3491 2834 3397 
z
" transform="scale(0.015625)"/>
       <path id="DejaVuSans-63" d="M 3122 3366 
L 3122 2828 
Q 2878 2963 2633 3030 
Q 2388 3097 2138 3097 
Q 1578 3097 1268 2742 
Q 959 2388 959 1747 
Q 959 1106 1268 751 
Q 1578 397 2138 397 
Q 2388 397 2633 464 
Q 2878 531 3122 666 
L 3122 134 
Q 2881 22 2623 -34 
Q 2366 -91 2075 -91 
Q 1284 -91 818 406 
Q 353 903 353 1747 
Q 353 2603 823 3093 
Q 1294 3584 2113 3584 
Q 2378 3584 2631 3529 
Q 2884 3475 3122 3366 
z
" transform="scale(0.015625)"/>
       <path id="DejaVuSans-69" d="M 603 3500 
L 1178 3500 
L 1178 0 
L 603 0 
L 603 3500 
z
M 603 4863 
L 1178 4863 
L 1178 4134 
L 603 4134 
L 603 4863 
z
" transform="scale(0.015625)"/>
       <path id="DejaVuSans-6c" d="M 603 4863 
L 1178 4863 
L 1178 0 
L 603 0 
L 603 4863 
z
" transform="scale(0.015625)"/>
       <path id="DejaVuSans-61" d="M 2194 1759 
Q 1497 1759 1228 1600 
Q 959 1441 959 1056 
Q 959 750 1161 570 
Q 1363 391 1709 391 
Q 2188 391 2477 730 
Q 2766 1069 2766 1631 
L 2766 1759 
L 2194 1759 
z
M 3341 1997 
L 3341 0 
L 2766 0 
L 2766 531 
Q 2569 213 2275 61 
Q 1981 -91 1556 -91 
Q 1019 -91 701 211 
Q 384 513 384 1019 
Q 384 1609 779 1909 
Q 1175 2209 1959 2209 
L 2766 2209 
L 2766 2266 
Q 2766 2663 2505 2880 
Q 2244 3097 1772 3097 
Q 1472 3097 1187 3025 
Q 903 2953 641 2809 
L 641 3341 
Q 956 3463 1253 3523 
Q 1550 3584 1831 3584 
Q 2591 3584 2966 3190 
Q 3341 2797 3341 1997 
z
" transform="scale(0.015625)"/>
       <path id="DejaVuSans-74" d="M 1172 4494 
L 1172 3500 
L 2356 3500 
L 2356 3053 
L 1172 3053 
L 1172 1153 
Q 1172 725 1289 603 
Q 1406 481 1766 481 
L 2356 481 
L 2356 0 
L 1766 0 
Q 1100 0 847 248 
Q 594 497 594 1153 
L 594 3053 
L 172 3053 
L 172 3500 
L 594 3500 
L 594 4494 
L 1172 4494 
z
" transform="scale(0.015625)"/>
       <path id="DejaVuSans-6f" d="M 1959 3097 
Q 1497 3097 1228 2736 
Q 959 2375 959 1747 
Q 959 1119 1226 758 
Q 1494 397 1959 397 
Q 2419 397 2687 759 
Q 2956 1122 2956 1747 
Q 2956 2369 2687 2733 
Q 2419 3097 1959 3097 
z
M 1959 3584 
Q 2709 3584 3137 3096 
Q 3566 2609 3566 1747 
Q 3566 888 3137 398 
Q 2709 -91 1959 -91 
Q 1206 -91 779 398 
Q 353 888 353 1747 
Q 353 2609 779 3096 
Q 1206 3584 1959 3584 
z
" transform="scale(0.015625)"/>
       <path id="DejaVuSans-6e" d="M 3513 2113 
L 3513 0 
L 2938 0 
L 2938 2094 
Q 2938 2591 2744 2837 
Q 2550 3084 2163 3084 
Q 1697 3084 1428 2787 
Q 1159 2491 1159 1978 
L 1159 0 
L 581 0 
L 581 3500 
L 1159 3500 
L 1159 2956 
Q 1366 3272 1645 3428 
Q 1925 3584 2291 3584 
Q 2894 3584 3203 3211 
Q 3513 2838 3513 2113 
z
" transform="scale(0.015625)"/>
       <path id="DejaVuSans-20" transform="scale(0.015625)"/>
       <path id="DejaVuSans-46" d="M 628 4666 
L 3309 4666 
L 3309 4134 
L 1259 4134 
L 1259 2759 
L 3109 2759 
L 3109 2228 
L 1259 2228 
L 1259 0 
L 628 0 
L 628 4666 
z
" transform="scale(0.015625)"/>
       <path id="DejaVuSans-72" d="M 2631 2963 
Q 2534 3019 2420 3045 
Q 2306 3072 2169 3072 
Q 1681 3072 1420 2755 
Q 1159 2438 1159 1844 
L 1159 0 
L 581 0 
L 581 3500 
L 1159 3500 
L 1159 2956 
Q 1341 3275 1631 3429 
Q 1922 3584 2338 3584 
Q 2397 3584 2469 3576 
Q 2541 3569 2628 3553 
L 2631 2963 
z
" transform="scale(0.015625)"/>
       <path id="DejaVuSans-65" d="M 3597 1894 
L 3597 1613 
L 953 1613 
Q 991 1019 1311 708 
Q 1631 397 2203 397 
Q 2534 397 2845 478 
Q 3156 559 3463 722 
L 3463 178 
Q 3153 47 2828 -22 
Q 2503 -91 2169 -91 
Q 1331 -91 842 396 
Q 353 884 353 1716 
Q 353 2575 817 3079 
Q 1281 3584 2069 3584 
Q 2775 3584 3186 3129 
Q 3597 2675 3597 1894 
z
M 3022 2063 
Q 3016 2534 2758 2815 
Q 2500 3097 2075 3097 
Q 1594 3097 1305 2825 
Q 1016 2553 972 2059 
L 3022 2063 
z
" transform="scale(0.015625)"/>
       <path id="DejaVuSans-71" d="M 947 1747 
Q 947 1113 1208 752 
Q 1469 391 1925 391 
Q 2381 391 2643 752 
Q 2906 1113 2906 1747 
Q 2906 2381 2643 2742 
Q 2381 3103 1925 3103 
Q 1469 3103 1208 2742 
Q 947 2381 947 1747 
z
M 2906 525 
Q 2725 213 2448 61 
Q 2172 -91 1784 -91 
Q 1150 -91 751 415 
Q 353 922 353 1747 
Q 353 2572 751 3078 
Q 1150 3584 1784 3584 
Q 2172 3584 2448 3432 
Q 2725 3281 2906 2969 
L 2906 3500 
L 3481 3500 
L 3481 -1331 
L 2906 -1331 
L 2906 525 
z
" transform="scale(0.015625)"/>
       <path id="DejaVuSans-75" d="M 544 1381 
L 544 3500 
L 1119 3500 
L 1119 1403 
Q 1119 906 1312 657 
Q 1506 409 1894 409 
Q 2359 409 2629 706 
Q 2900 1003 2900 1516 
L 2900 3500 
L 3475 3500 
L 3475 0 
L 2900 0 
L 2900 538 
Q 2691 219 2414 64 
Q 2138 -91 1772 -91 
Q 1169 -91 856 284 
Q 544 659 544 1381 
z
M 1991 3584 
L 1991 3584 
z
" transform="scale(0.015625)"/>
       <path id="DejaVuSans-79" d="M 2059 -325 
Q 1816 -950 1584 -1140 
Q 1353 -1331 966 -1331 
L 506 -1331 
L 506 -850 
L 844 -850 
Q 1081 -850 1212 -737 
Q 1344 -625 1503 -206 
L 1606 56 
L 191 3500 
L 800 3500 
L 1894 763 
L 2988 3500 
L 3597 3500 
L 2059 -325 
z
" transform="scale(0.015625)"/>
       <path id="DejaVuSans-2c" d="M 750 794 
L 1409 794 
L 1409 256 
L 897 -744 
L 494 -744 
L 750 256 
L 750 794 
z
" transform="scale(0.015625)"/>
       <path id="DejaVuSans-Oblique-3c9" d="M 1369 -91 
Q 72 -91 434 1766 
Q 575 2500 1256 3500 
L 1875 3500 
Q 1231 2500 1088 1750 
Q 819 397 1519 397 
Q 2166 397 2478 2078 
L 3009 2078 
Q 2669 388 3316 397 
Q 4013 403 4275 1750 
Q 4419 2500 4169 3500 
L 4788 3500 
Q 5075 2500 4934 1766 
Q 4578 -94 3278 -91 
Q 2428 -88 2503 844 
Q 2194 -91 1369 -91 
z
" transform="scale(0.015625)"/>
       <path id="DejaVuSans-28" d="M 1984 4856 
Q 1566 4138 1362 3434 
Q 1159 2731 1159 2009 
Q 1159 1288 1364 580 
Q 1569 -128 1984 -844 
L 1484 -844 
Q 1016 -109 783 600 
Q 550 1309 550 2009 
Q 550 2706 781 3412 
Q 1013 4119 1484 4856 
L 1984 4856 
z
" transform="scale(0.015625)"/>
       <path id="DejaVuSans-64" d="M 2906 2969 
L 2906 4863 
L 3481 4863 
L 3481 0 
L 2906 0 
L 2906 525 
Q 2725 213 2448 61 
Q 2172 -91 1784 -91 
Q 1150 -91 751 415 
Q 353 922 353 1747 
Q 353 2572 751 3078 
Q 1150 3584 1784 3584 
Q 2172 3584 2448 3432 
Q 2725 3281 2906 2969 
z
M 947 1747 
Q 947 1113 1208 752 
Q 1469 391 1925 391 
Q 2381 391 2643 752 
Q 2906 1113 2906 1747 
Q 2906 2381 2643 2742 
Q 2381 3103 1925 3103 
Q 1469 3103 1208 2742 
Q 947 2381 947 1747 
z
" transform="scale(0.015625)"/>
       <path id="DejaVuSans-2f" d="M 1625 4666 
L 2156 4666 
L 531 -594 
L 0 -594 
L 1625 4666 
z
" transform="scale(0.015625)"/>
       <path id="DejaVuSans-29" d="M 513 4856 
L 1013 4856 
Q 1481 4119 1714 3412 
Q 1947 2706 1947 2009 
Q 1947 1309 1714 600 
Q 1481 -109 1013 -844 
L 513 -844 
Q 928 -128 1133 580 
Q 1338 1288 1338 2009 
Q 1338 2731 1133 3434 
Q 928 4138 513 4856 
z
" transform="scale(0.015625)"/>
      </defs>
      <use xlink:href="#DejaVuSans-4f" transform="translate(0 0.015625)"/>
      <use xlink:href="#DejaVuSans-73" transform="translate(78.710938 0.015625)"/>
      <use xlink:href="#DejaVuSans-63" transform="translate(130.810547 0.015625)"/>
      <use xlink:href="#DejaVuSans-69" transform="translate(185.791016 0.015625)"/>
      <use xlink:href="#DejaVuSans-6c" transform="translate(213.574219 0.015625)"/>
      <use xlink:href="#DejaVuSans-6c" transform="translate(241.357422 0.015625)"/>
      <use xlink:href="#DejaVuSans-61" transform="translate(269.140625 0.015625)"/>
      <use xlink:href="#DejaVuSans-74" transform="translate(330.419922 0.015625)"/>
      <use xlink:href="#DejaVuSans-69" transform="translate(369.628906 0.015625)"/>
      <use xlink:href="#DejaVuSans-6f" transform="translate(397.412109 0.015625)"/>
      <use xlink:href="#DejaVuSans-6e" transform="translate(458.59375 0.015625)"/>
      <use xlink:href="#DejaVuSans-20" transform="translate(521.972656 0.015625)"/>
      <use xlink:href="#DejaVuSans-46" transform="translate(553.759766 0.015625)"/>
      <use xlink:href="#DejaVuSans-72" transform="translate(611.279297 0.015625)"/>
      <use xlink:href="#DejaVuSans-65" transform="translate(652.392578 0.015625)"/>
      <use xlink:href="#DejaVuSans-71" transform="translate(713.916016 0.015625)"/>
      <use xlink:href="#DejaVuSans-75" transform="translate(777.392578 0.015625)"/>
      <use xlink:href="#DejaVuSans-65" transform="translate(840.771484 0.015625)"/>
      <use xlink:href="#DejaVuSans-6e" transform="translate(902.294922 0.015625)"/>
      <use xlink:href="#DejaVuSans-63" transform="translate(965.673828 0.015625)"/>
      <use xlink:href="#DejaVuSans-79" transform="translate(1020.654297 0.015625)"/>
      <use xlink:href="#DejaVuSans-2c" transform="translate(1079.833984 0.015625)"/>
      <use xlink:href="#DejaVuSans-20" transform="translate(1111.621094 0.015625)"/>
      <use xlink:href="#DejaVuSans-Oblique-3c9" transform="translate(1143.408203 0.015625)"/>
      <use xlink:href="#DejaVuSans-20" transform="translate(1227.148438 0.015625)"/>
      <use xlink:href="#DejaVuSans-28" transform="translate(1258.935547 0.015625)"/>
      <use xlink:href="#DejaVuSans-72" transform="translate(1297.949219 0.015625)"/>
      <use xlink:href="#DejaVuSans-61" transform="translate(1339.0625 0.015625)"/>
      <use xlink:href="#DejaVuSans-64" transform="translate(1400.341797 0.015625)"/>
      <use xlink:href="#DejaVuSans-2f" transform="translate(1463.818359 0.015625)"/>
      <use xlink:href="#DejaVuSans-73" transform="translate(1497.509766 0.015625)"/>
      <use xlink:href="#DejaVuSans-29" transform="translate(1549.609375 0.015625)"/>
     </g>
    </g>
   </g>
   <g id="matplotlib.axis_2">
    <g id="ytick_1">
     <g id="line2d_20">
      <defs>
       <path id="med4f59874c" d="M 0 0 
L -3.5 0 
" style="stroke: #000000; stroke-width: 0.8"/>
      </defs>
      <g>
       <use xlink:href="#med4f59874c" x="60.812054" y="235.091103" style="stroke: #000000; stroke-width: 0.8"/>
      </g>
     </g>
     <g id="text_4">
      <!-- $\mathdefault{10^{-1}}$ -->
      <g transform="translate(30.312054 238.890322) scale(0.1 -0.1)">
       <defs>
        <path id="DejaVuSans-2212" d="M 678 2272 
L 4684 2272 
L 4684 1741 
L 678 1741 
L 678 2272 
z
" transform="scale(0.015625)"/>
       </defs>
       <use xlink:href="#DejaVuSans-31" transform="translate(0 0.684375)"/>
       <use xlink:href="#DejaVuSans-30" transform="translate(63.623047 0.684375)"/>
       <use xlink:href="#DejaVuSans-2212" transform="translate(128.203125 38.965625) scale(0.7)"/>
       <use xlink:href="#DejaVuSans-31" transform="translate(186.855469 38.965625) scale(0.7)"/>
      </g>
     </g>
    </g>
    <g id="ytick_2">
     <g id="line2d_21">
      <g>
       <use xlink:href="#med4f59874c" x="60.812054" y="174.599636" style="stroke: #000000; stroke-width: 0.8"/>
      </g>
     </g>
     <g id="text_5">
      <!-- $\mathdefault{10^{0}}$ -->
      <g transform="translate(36.212054 178.398855) scale(0.1 -0.1)">
       <use xlink:href="#DejaVuSans-31" transform="translate(0 0.765625)"/>
       <use xlink:href="#DejaVuSans-30" transform="translate(63.623047 0.765625)"/>
       <use xlink:href="#DejaVuSans-30" transform="translate(128.203125 39.046875) scale(0.7)"/>
      </g>
     </g>
    </g>
    <g id="ytick_3">
     <g id="line2d_22">
      <g>
       <use xlink:href="#med4f59874c" x="60.812054" y="114.108169" style="stroke: #000000; stroke-width: 0.8"/>
      </g>
     </g>
     <g id="text_6">
      <!-- $\mathdefault{10^{1}}$ -->
      <g transform="translate(36.212054 117.907388) scale(0.1 -0.1)">
       <use xlink:href="#DejaVuSans-31" transform="translate(0 0.684375)"/>
       <use xlink:href="#DejaVuSans-30" transform="translate(63.623047 0.684375)"/>
       <use xlink:href="#DejaVuSans-31" transform="translate(128.203125 38.965625) scale(0.7)"/>
      </g>
     </g>
    </g>
    <g id="ytick_4">
     <g id="line2d_23">
      <g>
       <use xlink:href="#med4f59874c" x="60.812054" y="53.616702" style="stroke: #000000; stroke-width: 0.8"/>
      </g>
     </g>
     <g id="text_7">
      <!-- $\mathdefault{10^{2}}$ -->
      <g transform="translate(36.212054 57.415921) scale(0.1 -0.1)">
       <defs>
        <path id="DejaVuSans-32" d="M 1228 531 
L 3431 531 
L 3431 0 
L 469 0 
L 469 531 
Q 828 903 1448 1529 
Q 2069 2156 2228 2338 
Q 2531 2678 2651 2914 
Q 2772 3150 2772 3378 
Q 2772 3750 2511 3984 
Q 2250 4219 1831 4219 
Q 1534 4219 1204 4116 
Q 875 4013 500 3803 
L 500 4441 
Q 881 4594 1212 4672 
Q 1544 4750 1819 4750 
Q 2544 4750 2975 4387 
Q 3406 4025 3406 3419 
Q 3406 3131 3298 2873 
Q 3191 2616 2906 2266 
Q 2828 2175 2409 1742 
Q 1991 1309 1228 531 
z
" transform="scale(0.015625)"/>
       </defs>
       <use xlink:href="#DejaVuSans-31" transform="translate(0 0.765625)"/>
       <use xlink:href="#DejaVuSans-30" transform="translate(63.623047 0.765625)"/>
       <use xlink:href="#DejaVuSans-32" transform="translate(128.203125 39.046875) scale(0.7)"/>
      </g>
     </g>
    </g>
    <g id="ytick_5">
     <g id="line2d_24">
      <defs>
       <path id="m96ac86e12f" d="M 0 0 
L -2 0 
" style="stroke: #000000; stroke-width: 0.6"/>
      </defs>
      <g>
       <use xlink:href="#m96ac86e12f" x="60.812054" y="277.372824" style="stroke: #000000; stroke-width: 0.6"/>
      </g>
     </g>
    </g>
    <g id="ytick_6">
     <g id="line2d_25">
      <g>
       <use xlink:href="#m96ac86e12f" x="60.812054" y="266.720806" style="stroke: #000000; stroke-width: 0.6"/>
      </g>
     </g>
    </g>
    <g id="ytick_7">
     <g id="line2d_26">
      <g>
       <use xlink:href="#m96ac86e12f" x="60.812054" y="259.163078" style="stroke: #000000; stroke-width: 0.6"/>
      </g>
     </g>
    </g>
    <g id="ytick_8">
     <g id="line2d_27">
      <g>
       <use xlink:href="#m96ac86e12f" x="60.812054" y="253.300849" style="stroke: #000000; stroke-width: 0.6"/>
      </g>
     </g>
    </g>
    <g id="ytick_9">
     <g id="line2d_28">
      <g>
       <use xlink:href="#m96ac86e12f" x="60.812054" y="248.51106" style="stroke: #000000; stroke-width: 0.6"/>
      </g>
     </g>
    </g>
    <g id="ytick_10">
     <g id="line2d_29">
      <g>
       <use xlink:href="#m96ac86e12f" x="60.812054" y="244.46135" style="stroke: #000000; stroke-width: 0.6"/>
      </g>
     </g>
    </g>
    <g id="ytick_11">
     <g id="line2d_30">
      <g>
       <use xlink:href="#m96ac86e12f" x="60.812054" y="240.953332" style="stroke: #000000; stroke-width: 0.6"/>
      </g>
     </g>
    </g>
    <g id="ytick_12">
     <g id="line2d_31">
      <g>
       <use xlink:href="#m96ac86e12f" x="60.812054" y="237.859041" style="stroke: #000000; stroke-width: 0.6"/>
      </g>
     </g>
    </g>
    <g id="ytick_13">
     <g id="line2d_32">
      <g>
       <use xlink:href="#m96ac86e12f" x="60.812054" y="216.881357" style="stroke: #000000; stroke-width: 0.6"/>
      </g>
     </g>
    </g>
    <g id="ytick_14">
     <g id="line2d_33">
      <g>
       <use xlink:href="#m96ac86e12f" x="60.812054" y="206.229339" style="stroke: #000000; stroke-width: 0.6"/>
      </g>
     </g>
    </g>
    <g id="ytick_15">
     <g id="line2d_34">
      <g>
       <use xlink:href="#m96ac86e12f" x="60.812054" y="198.671611" style="stroke: #000000; stroke-width: 0.6"/>
      </g>
     </g>
    </g>
    <g id="ytick_16">
     <g id="line2d_35">
      <g>
       <use xlink:href="#m96ac86e12f" x="60.812054" y="192.809382" style="stroke: #000000; stroke-width: 0.6"/>
      </g>
     </g>
    </g>
    <g id="ytick_17">
     <g id="line2d_36">
      <g>
       <use xlink:href="#m96ac86e12f" x="60.812054" y="188.019593" style="stroke: #000000; stroke-width: 0.6"/>
      </g>
     </g>
    </g>
    <g id="ytick_18">
     <g id="line2d_37">
      <g>
       <use xlink:href="#m96ac86e12f" x="60.812054" y="183.969883" style="stroke: #000000; stroke-width: 0.6"/>
      </g>
     </g>
    </g>
    <g id="ytick_19">
     <g id="line2d_38">
      <g>
       <use xlink:href="#m96ac86e12f" x="60.812054" y="180.461865" style="stroke: #000000; stroke-width: 0.6"/>
      </g>
     </g>
    </g>
    <g id="ytick_20">
     <g id="line2d_39">
      <g>
       <use xlink:href="#m96ac86e12f" x="60.812054" y="177.367574" style="stroke: #000000; stroke-width: 0.6"/>
      </g>
     </g>
    </g>
    <g id="ytick_21">
     <g id="line2d_40">
      <g>
       <use xlink:href="#m96ac86e12f" x="60.812054" y="156.38989" style="stroke: #000000; stroke-width: 0.6"/>
      </g>
     </g>
    </g>
    <g id="ytick_22">
     <g id="line2d_41">
      <g>
       <use xlink:href="#m96ac86e12f" x="60.812054" y="145.737872" style="stroke: #000000; stroke-width: 0.6"/>
      </g>
     </g>
    </g>
    <g id="ytick_23">
     <g id="line2d_42">
      <g>
       <use xlink:href="#m96ac86e12f" x="60.812054" y="138.180144" style="stroke: #000000; stroke-width: 0.6"/>
      </g>
     </g>
    </g>
    <g id="ytick_24">
     <g id="line2d_43">
      <g>
       <use xlink:href="#m96ac86e12f" x="60.812054" y="132.317915" style="stroke: #000000; stroke-width: 0.6"/>
      </g>
     </g>
    </g>
    <g id="ytick_25">
     <g id="line2d_44">
      <g>
       <use xlink:href="#m96ac86e12f" x="60.812054" y="127.528126" style="stroke: #000000; stroke-width: 0.6"/>
      </g>
     </g>
    </g>
    <g id="ytick_26">
     <g id="line2d_45">
      <g>
       <use xlink:href="#m96ac86e12f" x="60.812054" y="123.478416" style="stroke: #000000; stroke-width: 0.6"/>
      </g>
     </g>
    </g>
    <g id="ytick_27">
     <g id="line2d_46">
      <g>
       <use xlink:href="#m96ac86e12f" x="60.812054" y="119.970398" style="stroke: #000000; stroke-width: 0.6"/>
      </g>
     </g>
    </g>
    <g id="ytick_28">
     <g id="line2d_47">
      <g>
       <use xlink:href="#m96ac86e12f" x="60.812054" y="116.876107" style="stroke: #000000; stroke-width: 0.6"/>
      </g>
     </g>
    </g>
    <g id="ytick_29">
     <g id="line2d_48">
      <g>
       <use xlink:href="#m96ac86e12f" x="60.812054" y="95.898423" style="stroke: #000000; stroke-width: 0.6"/>
      </g>
     </g>
    </g>
    <g id="ytick_30">
     <g id="line2d_49">
      <g>
       <use xlink:href="#m96ac86e12f" x="60.812054" y="85.246405" style="stroke: #000000; stroke-width: 0.6"/>
      </g>
     </g>
    </g>
    <g id="ytick_31">
     <g id="line2d_50">
      <g>
       <use xlink:href="#m96ac86e12f" x="60.812054" y="77.688677" style="stroke: #000000; stroke-width: 0.6"/>
      </g>
     </g>
    </g>
    <g id="ytick_32">
     <g id="line2d_51">
      <g>
       <use xlink:href="#m96ac86e12f" x="60.812054" y="71.826448" style="stroke: #000000; stroke-width: 0.6"/>
      </g>
     </g>
    </g>
    <g id="ytick_33">
     <g id="line2d_52">
      <g>
       <use xlink:href="#m96ac86e12f" x="60.812054" y="67.036659" style="stroke: #000000; stroke-width: 0.6"/>
      </g>
     </g>
    </g>
    <g id="ytick_34">
     <g id="line2d_53">
      <g>
       <use xlink:href="#m96ac86e12f" x="60.812054" y="62.986949" style="stroke: #000000; stroke-width: 0.6"/>
      </g>
     </g>
    </g>
    <g id="ytick_35">
     <g id="line2d_54">
      <g>
       <use xlink:href="#m96ac86e12f" x="60.812054" y="59.478931" style="stroke: #000000; stroke-width: 0.6"/>
      </g>
     </g>
    </g>
    <g id="ytick_36">
     <g id="line2d_55">
      <g>
       <use xlink:href="#m96ac86e12f" x="60.812054" y="56.38464" style="stroke: #000000; stroke-width: 0.6"/>
      </g>
     </g>
    </g>
    <g id="ytick_37">
     <g id="line2d_56">
      <g>
       <use xlink:href="#m96ac86e12f" x="60.812054" y="35.406956" style="stroke: #000000; stroke-width: 0.6"/>
      </g>
     </g>
    </g>
    <g id="ytick_38">
     <g id="line2d_57">
      <g>
       <use xlink:href="#m96ac86e12f" x="60.812054" y="24.754938" style="stroke: #000000; stroke-width: 0.6"/>
      </g>
     </g>
    </g>
    <g id="ytick_39">
     <g id="line2d_58">
      <g>
       <use xlink:href="#m96ac86e12f" x="60.812054" y="17.19721" style="stroke: #000000; stroke-width: 0.6"/>
      </g>
     </g>
    </g>
    <g id="ytick_40">
     <g id="line2d_59">
      <g>
       <use xlink:href="#m96ac86e12f" x="60.812054" y="11.334981" style="stroke: #000000; stroke-width: 0.6"/>
      </g>
     </g>
    </g>
    <g id="text_8">
     <!-- Viscoelastic Moduli, $G',  G''$ (Pa) -->
     <g transform="translate(23.816429 244.484) rotate(-90) scale(0.12 -0.12)">
      <defs>
       <path id="DejaVuSans-56" d="M 1831 0 
L 50 4666 
L 709 4666 
L 2188 738 
L 3669 4666 
L 4325 4666 
L 2547 0 
L 1831 0 
z
" transform="scale(0.015625)"/>
       <path id="DejaVuSans-4d" d="M 628 4666 
L 1569 4666 
L 2759 1491 
L 3956 4666 
L 4897 4666 
L 4897 0 
L 4281 0 
L 4281 4097 
L 3078 897 
L 2444 897 
L 1241 4097 
L 1241 0 
L 628 0 
L 628 4666 
z
" transform="scale(0.015625)"/>
       <path id="DejaVuSans-Oblique-47" d="M 3494 697 
L 3738 1919 
L 2700 1919 
L 2797 2438 
L 4453 2438 
L 4050 384 
Q 3634 156 3143 32 
Q 2653 -91 2156 -91 
Q 1278 -91 783 396 
Q 288 884 288 1753 
Q 288 2475 589 3126 
Q 891 3778 1422 4213 
Q 1756 4484 2153 4617 
Q 2550 4750 3034 4750 
Q 3472 4750 3873 4639 
Q 4275 4528 4641 4306 
L 4513 3634 
Q 4231 3928 3853 4083 
Q 3475 4238 3047 4238 
Q 2550 4238 2172 4048 
Q 1794 3859 1497 3463 
Q 1244 3125 1098 2667 
Q 953 2209 953 1734 
Q 953 1081 1287 751 
Q 1622 422 2284 422 
Q 2616 422 2925 492 
Q 3234 563 3494 697 
z
" transform="scale(0.015625)"/>
       <path id="Cmsy10-30" d="M 225 347 
Q 184 359 184 409 
L 966 3316 
Q 1003 3434 1093 3506 
Q 1184 3578 1300 3578 
Q 1450 3578 1564 3479 
Q 1678 3381 1678 3231 
Q 1678 3166 1644 3084 
L 488 319 
Q 466 275 428 275 
Q 394 275 320 306 
Q 247 338 225 347 
z
" transform="scale(0.015625)"/>
       <path id="DejaVuSans-50" d="M 1259 4147 
L 1259 2394 
L 2053 2394 
Q 2494 2394 2734 2622 
Q 2975 2850 2975 3272 
Q 2975 3691 2734 3919 
Q 2494 4147 2053 4147 
L 1259 4147 
z
M 628 4666 
L 2053 4666 
Q 2838 4666 3239 4311 
Q 3641 3956 3641 3272 
Q 3641 2581 3239 2228 
Q 2838 1875 2053 1875 
L 1259 1875 
L 1259 0 
L 628 0 
L 628 4666 
z
" transform="scale(0.015625)"/>
      </defs>
      <use xlink:href="#DejaVuSans-56" transform="translate(0 0.584375)"/>
      <use xlink:href="#DejaVuSans-69" transform="translate(68.408203 0.584375)"/>
      <use xlink:href="#DejaVuSans-73" transform="translate(96.191406 0.584375)"/>
      <use xlink:href="#DejaVuSans-63" transform="translate(148.291016 0.584375)"/>
      <use xlink:href="#DejaVuSans-6f" transform="translate(203.271484 0.584375)"/>
      <use xlink:href="#DejaVuSans-65" transform="translate(264.453125 0.584375)"/>
      <use xlink:href="#DejaVuSans-6c" transform="translate(325.976562 0.584375)"/>
      <use xlink:href="#DejaVuSans-61" transform="translate(353.759766 0.584375)"/>
      <use xlink:href="#DejaVuSans-73" transform="translate(415.039062 0.584375)"/>
      <use xlink:href="#DejaVuSans-74" transform="translate(467.138672 0.584375)"/>
      <use xlink:href="#DejaVuSans-69" transform="translate(506.347656 0.584375)"/>
      <use xlink:href="#DejaVuSans-63" transform="translate(534.130859 0.584375)"/>
      <use xlink:href="#DejaVuSans-20" transform="translate(589.111328 0.584375)"/>
      <use xlink:href="#DejaVuSans-4d" transform="translate(620.898438 0.584375)"/>
      <use xlink:href="#DejaVuSans-6f" transform="translate(707.177734 0.584375)"/>
      <use xlink:href="#DejaVuSans-64" transform="translate(768.359375 0.584375)"/>
      <use xlink:href="#DejaVuSans-75" transform="translate(831.835938 0.584375)"/>
      <use xlink:href="#DejaVuSans-6c" transform="translate(895.214844 0.584375)"/>
      <use xlink:href="#DejaVuSans-69" transform="translate(922.998047 0.584375)"/>
      <use xlink:href="#DejaVuSans-2c" transform="translate(950.78125 0.584375)"/>
      <use xlink:href="#DejaVuSans-20" transform="translate(982.568359 0.584375)"/>
      <use xlink:href="#DejaVuSans-Oblique-47" transform="translate(1014.355469 0.584375)"/>
      <use xlink:href="#Cmsy10-30" transform="translate(1099.046224 38.865625) scale(0.7)"/>
      <use xlink:href="#DejaVuSans-2c" transform="translate(1121.023763 0.584375)"/>
      <use xlink:href="#DejaVuSans-Oblique-47" transform="translate(1172.293294 0.584375)"/>
      <use xlink:href="#Cmsy10-30" transform="translate(1256.984049 38.865625) scale(0.7)"/>
      <use xlink:href="#Cmsy10-30" transform="translate(1276.227214 38.865625) scale(0.7)"/>
      <use xlink:href="#DejaVuSans-20" transform="translate(1298.204753 0.584375)"/>
      <use xlink:href="#DejaVuSans-28" transform="translate(1329.991862 0.584375)"/>
      <use xlink:href="#DejaVuSans-50" transform="translate(1369.005534 0.584375)"/>
      <use xlink:href="#DejaVuSans-61" transform="translate(1429.308268 0.584375)"/>
      <use xlink:href="#DejaVuSans-29" transform="translate(1490.587565 0.584375)"/>
     </g>
    </g>
   </g>
   <g id="line2d_60">
    <path d="M 80.173486 281.669455 
L 98.178719 271.82383 
L 114.534055 263.668131 
L 132.535406 255.616575 
L 150.532874 248.435291 
L 167.443352 242.216796 
L 185.988199 235.541382 
L 203.457699 228.933311 
L 221.987018 221.180282 
L 238.893614 213.247423 
L 255.256713 204.771303 
L 274.892433 193.691745 
L 291.255533 183.865629 
L 307.618633 173.656517 
L 326.710857 161.435574 
L 343.617452 150.472256 
L 361.634331 138.772554 
L 379.616272 127.208672 
L 396.52675 116.57032 
L 413.996251 105.984485 
L 431.434696 96.027907 
" clip-path="url(#pe4ed5e55d1)" style="fill: none; stroke: #1f77b4; stroke-width: 1.5; stroke-linecap: square"/>
   </g>
   <g id="line2d_61">
    <path d="M 80.173486 190.841607 
L 98.178719 184.820158 
L 114.534055 179.38073 
L 132.535406 173.415715 
L 150.532874 167.455228 
L 167.443352 161.838863 
L 185.988199 155.647889 
L 203.457699 149.781894 
L 221.987018 143.528767 
L 238.893614 137.8035 
L 255.256713 132.253125 
L 274.892433 125.593454 
L 291.255533 120.056279 
L 307.618633 114.544112 
L 326.710857 108.16794 
L 343.617452 102.602809 
L 361.634331 96.806111 
L 379.616272 91.23426 
L 396.52675 86.289689 
L 413.996251 81.624215 
L 431.434696 77.602432 
" clip-path="url(#pe4ed5e55d1)" style="fill: none; stroke-dasharray: 5.55,2.4; stroke-dashoffset: 0; stroke: #1f77b4; stroke-width: 1.5"/>
   </g>
   <g id="line2d_62">
    <path d="M 78.502415 207.162289 
L 98.421355 193.966011 
L 113.94988 183.874973 
L 131.515773 172.770586 
L 150.484911 161.314657 
L 167.420791 151.741572 
L 185.93227 142.205358 
L 203.726016 134.129158 
L 222.152674 126.964103 
L 239.134155 121.344652 
L 255.231462 116.665 
L 274.486531 111.467549 
L 291.21513 106.894638 
L 308.260026 101.837486 
L 327.198799 95.521223 
L 343.928698 89.340005 
L 363.182467 81.795709 
L 379.596071 75.360579 
L 396.32597 69.181332 
L 414.951047 63.139122 
L 432.309639 58.530581 
" clip-path="url(#pe4ed5e55d1)" style="fill: none; stroke: #ff7f0e; stroke-width: 1.5; stroke-linecap: square"/>
   </g>
   <g id="line2d_63">
    <path d="M 78.502415 144.973413 
L 98.421355 138.400756 
L 113.94988 133.383364 
L 131.515773 127.872227 
L 150.484911 122.194205 
L 167.420791 117.439602 
L 185.93227 112.645528 
L 203.726016 108.436937 
L 222.152674 104.396547 
L 239.134155 100.794478 
L 255.231462 97.324188 
L 274.486531 92.949197 
L 291.21513 88.916905 
L 308.260026 84.657118 
L 327.198799 79.924321 
L 343.928698 75.956986 
L 363.182467 71.945258 
L 379.596071 69.26104 
L 396.32597 67.464532 
L 414.951047 66.795636 
L 432.309639 67.523907 
" clip-path="url(#pe4ed5e55d1)" style="fill: none; stroke-dasharray: 5.55,2.4; stroke-dashoffset: 0; stroke: #ff7f0e; stroke-width: 1.5"/>
   </g>
   <g id="line2d_64">
    <path d="M 79.103474 121.751744 
L 97.410954 110.413249 
L 115.718435 99.703953 
L 132.461335 90.667507 
L 150.121922 82.143778 
L 167.79811 74.835906 
L 186.105591 68.648037 
L 202.83419 64.163702 
L 221.772963 60.205387 
L 239.449151 57.263201 
L 255.241863 54.96103 
L 274.170235 52.259766 
L 291.21513 49.607555 
L 307.94503 46.62759 
L 326.883803 42.755322 
L 343.615002 39.016653 
L 361.604886 34.946361 
L 378.967379 31.288283 
L 396.32597 28.150654 
L 414.633451 25.53468 
L 431.995943 23.698545 
" clip-path="url(#pe4ed5e55d1)" style="fill: none; stroke: #2ca02c; stroke-width: 1.5; stroke-linecap: square"/>
   </g>
   <g id="line2d_65">
    <path d="M 79.103474 84.527738 
L 97.410954 79.257225 
L 115.718435 74.492626 
L 132.461335 70.726825 
L 150.121922 67.504054 
L 167.79811 65.113931 
L 186.105591 63.440279 
L 202.83419 62.397552 
L 221.772963 61.371434 
L 239.449151 60.16531 
L 255.241863 58.660999 
L 274.170235 56.253549 
L 291.21513 53.642274 
L 307.94503 50.916528 
L 326.883803 48.025361 
L 343.615002 46.00769 
L 361.604886 44.754348 
L 378.967379 44.686637 
L 396.32597 45.839207 
L 414.633451 48.318792 
L 431.995943 51.699018 
" clip-path="url(#pe4ed5e55d1)" style="fill: none; stroke-dasharray: 5.55,2.4; stroke-dashoffset: 0; stroke: #2ca02c; stroke-width: 1.5"/>
   </g>
   <g id="patch_3">
    <path d="M 60.812054 294.568 
L 60.812054 10.8 
" style="fill: none; stroke: #000000; stroke-width: 0.8; stroke-linejoin: miter; stroke-linecap: square"/>
   </g>
   <g id="patch_4">
    <path d="M 450 294.568 
L 450 10.8 
" style="fill: none; stroke: #000000; stroke-width: 0.8; stroke-linejoin: miter; stroke-linecap: square"/>
   </g>
   <g id="patch_5">
    <path d="M 60.812054 294.568 
L 450 294.568 
" style="fill: none; stroke: #000000; stroke-width: 0.8; stroke-linejoin: miter; stroke-linecap: square"/>
   </g>
   <g id="patch_6">
    <path d="M 60.812054 10.8 
L 450 10.8 
" style="fill: none; stroke: #000000; stroke-width: 0.8; stroke-linejoin: miter; stroke-linecap: square"/>
   </g>
   <g id="legend_1">
    <g id="patch_7">
     <path d="M 215.282589 289.568 
L 295.529464 289.568 
Q 297.529464 289.568 297.529464 287.568 
L 297.529464 244.533625 
Q 297.529464 242.533625 295.529464 242.533625 
L 215.282589 242.533625 
Q 213.282589 242.533625 213.282589 244.533625 
L 213.282589 287.568 
Q 213.282589 289.568 215.282589 289.568 
z
" style="fill: #ffffff; opacity: 0.8; stroke: #cccccc; stroke-linejoin: miter"/>
    </g>
    <g id="patch_8">
     <path d="M 217.282589 254.132062 
L 237.282589 254.132062 
L 237.282589 247.132062 
L 217.282589 247.132062 
z
" style="fill: #1f77b4; stroke: #1f77b4; stroke-linejoin: miter"/>
    </g>
    <g id="text_9">
     <!-- 640 kDa -->
     <g transform="translate(245.282589 254.132062) scale(0.1 -0.1)">
      <defs>
       <path id="DejaVuSans-36" d="M 2113 2584 
Q 1688 2584 1439 2293 
Q 1191 2003 1191 1497 
Q 1191 994 1439 701 
Q 1688 409 2113 409 
Q 2538 409 2786 701 
Q 3034 994 3034 1497 
Q 3034 2003 2786 2293 
Q 2538 2584 2113 2584 
z
M 3366 4563 
L 3366 3988 
Q 3128 4100 2886 4159 
Q 2644 4219 2406 4219 
Q 1781 4219 1451 3797 
Q 1122 3375 1075 2522 
Q 1259 2794 1537 2939 
Q 1816 3084 2150 3084 
Q 2853 3084 3261 2657 
Q 3669 2231 3669 1497 
Q 3669 778 3244 343 
Q 2819 -91 2113 -91 
Q 1303 -91 875 529 
Q 447 1150 447 2328 
Q 447 3434 972 4092 
Q 1497 4750 2381 4750 
Q 2619 4750 2861 4703 
Q 3103 4656 3366 4563 
z
" transform="scale(0.015625)"/>
       <path id="DejaVuSans-34" d="M 2419 4116 
L 825 1625 
L 2419 1625 
L 2419 4116 
z
M 2253 4666 
L 3047 4666 
L 3047 1625 
L 3713 1625 
L 3713 1100 
L 3047 1100 
L 3047 0 
L 2419 0 
L 2419 1100 
L 313 1100 
L 313 1709 
L 2253 4666 
z
" transform="scale(0.015625)"/>
       <path id="DejaVuSans-6b" d="M 581 4863 
L 1159 4863 
L 1159 1991 
L 2875 3500 
L 3609 3500 
L 1753 1863 
L 3688 0 
L 2938 0 
L 1159 1709 
L 1159 0 
L 581 0 
L 581 4863 
z
" transform="scale(0.015625)"/>
       <path id="DejaVuSans-44" d="M 1259 4147 
L 1259 519 
L 2022 519 
Q 2988 519 3436 956 
Q 3884 1394 3884 2338 
Q 3884 3275 3436 3711 
Q 2988 4147 2022 4147 
L 1259 4147 
z
M 628 4666 
L 1925 4666 
Q 3281 4666 3915 4102 
Q 4550 3538 4550 2338 
Q 4550 1131 3912 565 
Q 3275 0 1925 0 
L 628 0 
L 628 4666 
z
" transform="scale(0.015625)"/>
      </defs>
      <use xlink:href="#DejaVuSans-36"/>
      <use xlink:href="#DejaVuSans-34" transform="translate(63.623047 0)"/>
      <use xlink:href="#DejaVuSans-30" transform="translate(127.246094 0)"/>
      <use xlink:href="#DejaVuSans-20" transform="translate(190.869141 0)"/>
      <use xlink:href="#DejaVuSans-6b" transform="translate(222.65625 0)"/>
      <use xlink:href="#DejaVuSans-44" transform="translate(280.566406 0)"/>
      <use xlink:href="#DejaVuSans-61" transform="translate(357.568359 0)"/>
     </g>
    </g>
    <g id="patch_9">
     <path d="M 217.282589 268.810187 
L 237.282589 268.810187 
L 237.282589 261.810187 
L 217.282589 261.810187 
z
" style="fill: #ff7f0e; stroke: #ff7f0e; stroke-linejoin: miter"/>
    </g>
    <g id="text_10">
     <!-- 1060 kDa -->
     <g transform="translate(245.282589 268.810187) scale(0.1 -0.1)">
      <use xlink:href="#DejaVuSans-31"/>
      <use xlink:href="#DejaVuSans-30" transform="translate(63.623047 0)"/>
      <use xlink:href="#DejaVuSans-36" transform="translate(127.246094 0)"/>
      <use xlink:href="#DejaVuSans-30" transform="translate(190.869141 0)"/>
      <use xlink:href="#DejaVuSans-20" transform="translate(254.492188 0)"/>
      <use xlink:href="#DejaVuSans-6b" transform="translate(286.279297 0)"/>
      <use xlink:href="#DejaVuSans-44" transform="translate(344.189453 0)"/>
      <use xlink:href="#DejaVuSans-61" transform="translate(421.191406 0)"/>
     </g>
    </g>
    <g id="patch_10">
     <path d="M 217.282589 283.488312 
L 237.282589 283.488312 
L 237.282589 276.488312 
L 217.282589 276.488312 
z
" style="fill: #2ca02c; stroke: #2ca02c; stroke-linejoin: miter"/>
    </g>
    <g id="text_11">
     <!-- 2010 kDa -->
     <g transform="translate(245.282589 283.488312) scale(0.1 -0.1)">
      <use xlink:href="#DejaVuSans-32"/>
      <use xlink:href="#DejaVuSans-30" transform="translate(63.623047 0)"/>
      <use xlink:href="#DejaVuSans-31" transform="translate(127.246094 0)"/>
      <use xlink:href="#DejaVuSans-30" transform="translate(190.869141 0)"/>
      <use xlink:href="#DejaVuSans-20" transform="translate(254.492188 0)"/>
      <use xlink:href="#DejaVuSans-6b" transform="translate(286.279297 0)"/>
      <use xlink:href="#DejaVuSans-44" transform="translate(344.189453 0)"/>
      <use xlink:href="#DejaVuSans-61" transform="translate(421.191406 0)"/>
     </g>
    </g>
   </g>
   <g id="legend_2">
    <g id="patch_11">
     <path d="M 337.4 289.568 
L 443 289.568 
Q 445 289.568 445 287.568 
L 445 229.41175 
Q 445 227.41175 443 227.41175 
L 337.4 227.41175 
Q 335.4 227.41175 335.4 229.41175 
L 335.4 287.568 
Q 335.4 289.568 337.4 289.568 
z
" style="fill: #ffffff; opacity: 0.8; stroke: #cccccc; stroke-linejoin: miter"/>
    </g>
    <g id="line2d_66">
     <defs>
      <path id="m51c0687616" d="M 0 3 
C 0.795609 3 1.55874 2.683901 2.12132 2.12132 
C 2.683901 1.55874 3 0.795609 3 0 
C 3 -0.795609 2.683901 -1.55874 2.12132 -2.12132 
C 1.55874 -2.683901 0.795609 -3 0 -3 
C -0.795609 -3 -1.55874 -2.683901 -2.12132 -2.12132 
C -2.683901 -1.55874 -3 -0.795609 -3 0 
C -3 0.795609 -2.683901 1.55874 -2.12132 2.12132 
C -1.55874 2.683901 -0.795609 3 0 3 
z
" style="stroke: #000000"/>
     </defs>
     <g>
      <use xlink:href="#m51c0687616" x="349.4" y="235.71175" style="stroke: #000000"/>
     </g>
    </g>
    <g id="text_12">
     <!-- Experiment $G'$ -->
     <g transform="translate(367.4 239.21175) scale(0.1 -0.1)">
      <defs>
       <path id="DejaVuSans-45" d="M 628 4666 
L 3578 4666 
L 3578 4134 
L 1259 4134 
L 1259 2753 
L 3481 2753 
L 3481 2222 
L 1259 2222 
L 1259 531 
L 3634 531 
L 3634 0 
L 628 0 
L 628 4666 
z
" transform="scale(0.015625)"/>
       <path id="DejaVuSans-78" d="M 3513 3500 
L 2247 1797 
L 3578 0 
L 2900 0 
L 1881 1375 
L 863 0 
L 184 0 
L 1544 1831 
L 300 3500 
L 978 3500 
L 1906 2253 
L 2834 3500 
L 3513 3500 
z
" transform="scale(0.015625)"/>
       <path id="DejaVuSans-70" d="M 1159 525 
L 1159 -1331 
L 581 -1331 
L 581 3500 
L 1159 3500 
L 1159 2969 
Q 1341 3281 1617 3432 
Q 1894 3584 2278 3584 
Q 2916 3584 3314 3078 
Q 3713 2572 3713 1747 
Q 3713 922 3314 415 
Q 2916 -91 2278 -91 
Q 1894 -91 1617 61 
Q 1341 213 1159 525 
z
M 3116 1747 
Q 3116 2381 2855 2742 
Q 2594 3103 2138 3103 
Q 1681 3103 1420 2742 
Q 1159 2381 1159 1747 
Q 1159 1113 1420 752 
Q 1681 391 2138 391 
Q 2594 391 2855 752 
Q 3116 1113 3116 1747 
z
" transform="scale(0.015625)"/>
       <path id="DejaVuSans-6d" d="M 3328 2828 
Q 3544 3216 3844 3400 
Q 4144 3584 4550 3584 
Q 5097 3584 5394 3201 
Q 5691 2819 5691 2113 
L 5691 0 
L 5113 0 
L 5113 2094 
Q 5113 2597 4934 2840 
Q 4756 3084 4391 3084 
Q 3944 3084 3684 2787 
Q 3425 2491 3425 1978 
L 3425 0 
L 2847 0 
L 2847 2094 
Q 2847 2600 2669 2842 
Q 2491 3084 2119 3084 
Q 1678 3084 1418 2786 
Q 1159 2488 1159 1978 
L 1159 0 
L 581 0 
L 581 3500 
L 1159 3500 
L 1159 2956 
Q 1356 3278 1631 3431 
Q 1906 3584 2284 3584 
Q 2666 3584 2933 3390 
Q 3200 3197 3328 2828 
z
" transform="scale(0.015625)"/>
      </defs>
      <use xlink:href="#DejaVuSans-45" transform="translate(0 0.584375)"/>
      <use xlink:href="#DejaVuSans-78" transform="translate(63.183594 0.584375)"/>
      <use xlink:href="#DejaVuSans-70" transform="translate(122.363281 0.584375)"/>
      <use xlink:href="#DejaVuSans-65" transform="translate(185.839844 0.584375)"/>
      <use xlink:href="#DejaVuSans-72" transform="translate(247.363281 0.584375)"/>
      <use xlink:href="#DejaVuSans-69" transform="translate(288.476562 0.584375)"/>
      <use xlink:href="#DejaVuSans-6d" transform="translate(316.259766 0.584375)"/>
      <use xlink:href="#DejaVuSans-65" transform="translate(413.671875 0.584375)"/>
      <use xlink:href="#DejaVuSans-6e" transform="translate(475.195312 0.584375)"/>
      <use xlink:href="#DejaVuSans-74" transform="translate(538.574219 0.584375)"/>
      <use xlink:href="#DejaVuSans-20" transform="translate(577.783203 0.584375)"/>
      <use xlink:href="#DejaVuSans-Oblique-47" transform="translate(609.570312 0.584375)"/>
      <use xlink:href="#Cmsy10-30" transform="translate(694.261068 38.865625) scale(0.7)"/>
     </g>
    </g>
    <g id="line2d_67">
     <defs>
      <path id="mdfdbf71a80" d="M 0 3 
C 0.795609 3 1.55874 2.683901 2.12132 2.12132 
C 2.683901 1.55874 3 0.795609 3 0 
C 3 -0.795609 2.683901 -1.55874 2.12132 -2.12132 
C 1.55874 -2.683901 0.795609 -3 0 -3 
C -0.795609 -3 -1.55874 -2.683901 -2.12132 -2.12132 
C -2.683901 -1.55874 -3 -0.795609 -3 0 
C -3 0.795609 -2.683901 1.55874 -2.12132 2.12132 
C -1.55874 2.683901 -0.795609 3 0 3 
z
" style="stroke: #000000"/>
     </defs>
     <g>
      <use xlink:href="#mdfdbf71a80" x="349.4" y="250.61175" style="fill: #ffffff; stroke: #000000"/>
     </g>
    </g>
    <g id="text_13">
     <!-- Experiment $G''$ -->
     <g transform="translate(367.4 254.11175) scale(0.1 -0.1)">
      <use xlink:href="#DejaVuSans-45" transform="translate(0 0.584375)"/>
      <use xlink:href="#DejaVuSans-78" transform="translate(63.183594 0.584375)"/>
      <use xlink:href="#DejaVuSans-70" transform="translate(122.363281 0.584375)"/>
      <use xlink:href="#DejaVuSans-65" transform="translate(185.839844 0.584375)"/>
      <use xlink:href="#DejaVuSans-72" transform="translate(247.363281 0.584375)"/>
      <use xlink:href="#DejaVuSans-69" transform="translate(288.476562 0.584375)"/>
      <use xlink:href="#DejaVuSans-6d" transform="translate(316.259766 0.584375)"/>
      <use xlink:href="#DejaVuSans-65" transform="translate(413.671875 0.584375)"/>
      <use xlink:href="#DejaVuSans-6e" transform="translate(475.195312 0.584375)"/>
      <use xlink:href="#DejaVuSans-74" transform="translate(538.574219 0.584375)"/>
      <use xlink:href="#DejaVuSans-20" transform="translate(577.783203 0.584375)"/>
      <use xlink:href="#DejaVuSans-Oblique-47" transform="translate(609.570312 0.584375)"/>
      <use xlink:href="#Cmsy10-30" transform="translate(694.261068 38.865625) scale(0.7)"/>
      <use xlink:href="#Cmsy10-30" transform="translate(713.504232 38.865625) scale(0.7)"/>
     </g>
    </g>
    <g id="line2d_68">
     <path d="M 339.4 265.310187 
L 349.4 265.310187 
L 359.4 265.310187 
" style="fill: none; stroke: #000000; stroke-width: 1.5; stroke-linecap: square"/>
    </g>
    <g id="text_14">
     <!-- Model $G'$ -->
     <g transform="translate(367.4 268.810187) scale(0.1 -0.1)">
      <use xlink:href="#DejaVuSans-4d" transform="translate(0 0.584375)"/>
      <use xlink:href="#DejaVuSans-6f" transform="translate(86.279297 0.584375)"/>
      <use xlink:href="#DejaVuSans-64" transform="translate(147.460938 0.584375)"/>
      <use xlink:href="#DejaVuSans-65" transform="translate(210.9375 0.584375)"/>
      <use xlink:href="#DejaVuSans-6c" transform="translate(272.460938 0.584375)"/>
      <use xlink:href="#DejaVuSans-20" transform="translate(300.244141 0.584375)"/>
      <use xlink:href="#DejaVuSans-Oblique-47" transform="translate(332.03125 0.584375)"/>
      <use xlink:href="#Cmsy10-30" transform="translate(416.722005 38.865625) scale(0.7)"/>
     </g>
    </g>
    <g id="line2d_69">
     <path d="M 339.4 279.988312 
L 349.4 279.988312 
L 359.4 279.988312 
" style="fill: none; stroke-dasharray: 5.55,2.4; stroke-dashoffset: 0; stroke: #000000; stroke-width: 1.5"/>
    </g>
    <g id="text_15">
     <!-- Model $G''$ -->
     <g transform="translate(367.4 283.488312) scale(0.1 -0.1)">
      <use xlink:href="#DejaVuSans-4d" transform="translate(0 0.584375)"/>
      <use xlink:href="#DejaVuSans-6f" transform="translate(86.279297 0.584375)"/>
      <use xlink:href="#DejaVuSans-64" transform="translate(147.460938 0.584375)"/>
      <use xlink:href="#DejaVuSans-65" transform="translate(210.9375 0.584375)"/>
      <use xlink:href="#DejaVuSans-6c" transform="translate(272.460938 0.584375)"/>
      <use xlink:href="#DejaVuSans-20" transform="translate(300.244141 0.584375)"/>
      <use xlink:href="#DejaVuSans-Oblique-47" transform="translate(332.03125 0.584375)"/>
      <use xlink:href="#Cmsy10-30" transform="translate(416.722005 38.865625) scale(0.7)"/>
      <use xlink:href="#Cmsy10-30" transform="translate(435.965169 38.865625) scale(0.7)"/>
     </g>
    </g>
   </g>
  </g>
 </g>
 <defs>
  <clipPath id="pe4ed5e55d1">
   <rect x="60.812054" y="10.8" width="389.187946" height="283.768"/>
  </clipPath>
 </defs>
</svg>
